# xmcd
#
# Track frame offsets: 
#        150
#        13920
#        25537
#        35704
#        47811
#        62056
#        77193
#        90989
#        105785
#        118555
#        131464
#        144327
#        158280
#        171833
#        185748
#        197932
#        208893
#        222059
#        235368
#        246350
#        259126
#        270478
#        283289
#        296141
#
# Disc length: 4076 seconds
#
# Revision: 0
# Processed by: cddbd v1.5.2PL0 Copyright (c) Steve Scherf et al.
# Submitted via: ExactAudioCopyFreeDBPlugin 1.0
#
DISCID=600fea18
DTITLE=Billie Holiday - The Complete Masters CD4
DYEAR=1900
DGENRE=
TTITLE0=Getting Some Fun Out of Life
TTITLE1=Who Wants Love?
TTITLE2=Travellin' All Alone
TTITLE3=(I Got a Man, Crazy for Me) He's Funny That Way
TTITLE4=Nice Work If You Can Get It
TTITLE5=Things Are Looking Up
TTITLE6=My Man
TTITLE7=Can't Help Lovin' Dat Man
TTITLE8=My First Impression of You
TTITLE9=When You're Smiling 
TTITLE10=I Can't Believe That You're in Love with Me
TTITLE11=If Dreams Come True
TTITLE12=Now They Call It Swing
TTITLE13=On the Sentimental Side
TTITLE14=Back on Your Own Backyard
TTITLE15=When a Man Loves a Woman
TTITLE16=You Go To My Head
TTITLE17=The Moon Looks Down and Laughs
TTITLE18=If I Were You
TTITLE19=Forget If You Can
TTITLE20=Having Myself a Time
TTITLE21=Says my Heart
TTITLE22=I Wish I Had You
TTITLE23=I'm Gonna Lock My Heart (and Throw Away the Key)
EXTD=
EXTT0=
EXTT1=
EXTT2=
EXTT3=
EXTT4=
EXTT5=
EXTT6=
EXTT7=
EXTT8=
EXTT9=
EXTT10=
EXTT11=
EXTT12=
EXTT13=
EXTT14=
EXTT15=
EXTT16=
EXTT17=
EXTT18=
EXTT19=
EXTT20=
EXTT21=
EXTT22=
EXTT23=
PLAYORDER=
